<?xml version="1.0" encoding="UTF-8"?>
<svg xmlns="http://www.w3.org/2000/svg" width="224.63" height="126.69" viewBox="0 0 224.63 126.69">
  <title>rth</title>
  <path d="M109.62,59.65,65.06,120.8a3.37,3.37,0,0,0,2.72,5.35h89.11a3.37,3.37,0,0,0,3.36-3.38,3.31,3.31,0,0,0-.64-2L115.06,59.65a3.37,3.37,0,0,0-4.71-.73A3.16,3.16,0,0,0,109.62,59.65Z" transform="translate(-0.01 0.03)" fill="#00b30f"></path>
  <path d="M224,121.32,136.64,1.38a3.37,3.37,0,0,0-4.71-.73,3.16,3.16,0,0,0-.73.73L49,114.17a3.35,3.35,0,0,1-2.72,1.38H25.21a3.36,3.36,0,0,1-2.72-5.34L88,20.24a3.37,3.37,0,0,1,4.71-.73,3.16,3.16,0,0,1,.73.73l5.7,7.83a3.36,3.36,0,0,0,5.44,0l2.71-3.72a3.36,3.36,0,0,0,0-4l-13.85-19A3.37,3.37,0,0,0,88.73.62a3.16,3.16,0,0,0-.73.73L.66,121.32a3.36,3.36,0,0,0,2.71,5.34H52a3.35,3.35,0,0,0,2.72-1.38l76.53-105a3.37,3.37,0,0,1,4.71-.73,3.16,3.16,0,0,1,.73.73l65.54,90a3.36,3.36,0,0,1-2.72,5.34H178.37a3.38,3.38,0,0,1-2.72-1.38L125.49,45.33a3.35,3.35,0,0,0-5.43,0L117.35,49a3.39,3.39,0,0,0,0,4L170,125.28a3.38,3.38,0,0,0,2.72,1.38H221.3a3.36,3.36,0,0,0,2.7-5.34Z" transform="translate(-0.01 0.03)" fill="#fff"></path>
</svg>
