<?xml version="1.0" encoding="UTF-8"?>
<svg xmlns="http://www.w3.org/2000/svg" width="605.32" height="126.73" viewBox="0 0 605.32 126.73">
  <title>capigo-white-logo</title>
  <path d="M311.77,108.84l6,5.82a29.8,29.8,0,0,1-10.92,8.81,35,35,0,0,1-27.78.76,31.07,31.07,0,0,1-10.34-7,32.66,32.66,0,0,1-6.84-10.6,36.72,36.72,0,0,1,0-26.53,32.71,32.71,0,0,1,6.94-10.65,31.41,31.41,0,0,1,10.42-7,33.55,33.55,0,0,1,13.06-2.51,32.52,32.52,0,0,1,14.59,3.27A30.09,30.09,0,0,1,317.77,72l-6,5.82a24.34,24.34,0,0,0-8.14-7.43,24.13,24.13,0,0,0-23.49.58,24,24,0,0,0-8.54,9.13,27.38,27.38,0,0,0-3.13,13.29,27.27,27.27,0,0,0,3.13,13.15,23.89,23.89,0,0,0,8.54,9.17,24.13,24.13,0,0,0,23.49.58A24.24,24.24,0,0,0,311.77,108.84Z" transform="translate(0 -0.01)" fill="#fff"></path>
  <path d="M381.47,125.31h-9.13L349.53,66.88h3.22l-22.82,58.43h-8.76l25.41-64H356Zm-12.53-16.64H333.16v-7.43h35.78Z" transform="translate(0 -0.01)" fill="#fff"></path>
  <path d="M399.27,125.31h-8.58v-64h25.23a25.94,25.94,0,0,1,11.36,2.33,18.46,18.46,0,0,1,7.56,6.44,18.47,18.47,0,0,1,0,19.33,18.46,18.46,0,0,1-7.56,6.44,25.94,25.94,0,0,1-11.36,2.33H398.38V90.77h17.54q6,0,9.44-2.91a10,10,0,0,0,3.44-8.09,10,10,0,0,0-3.44-8.1q-3.45-2.91-9.44-2.91H399.27Z" transform="translate(0 -0.01)" fill="#fff"></path>
  <path d="M456.36,125.31h-8.59v-64h8.59Z" transform="translate(0 -0.01)" fill="#fff"></path>
  <path d="M529.19,125.31H521v-9.22l1.08.36a21.81,21.81,0,0,1-8.9,7.56,28.87,28.87,0,0,1-12.66,2.73,34.38,34.38,0,0,1-13.11-2.46,31.44,31.44,0,0,1-17.54-17.63,35.54,35.54,0,0,1-2.46-13.37A34.47,34.47,0,0,1,470,80a31.93,31.93,0,0,1,17.62-17.62,34.46,34.46,0,0,1,13.24-2.51,33.91,33.91,0,0,1,15,3.27A31.44,31.44,0,0,1,527,72l-6,5.82a24.81,24.81,0,0,0-8.37-7.43,24.06,24.06,0,0,0-11.77-2.77,23.56,23.56,0,0,0-21.2,12.48,27.22,27.22,0,0,0-3.13,13.2,27.68,27.68,0,0,0,3.13,13.28,23.39,23.39,0,0,0,8.72,9.22,24.54,24.54,0,0,0,12.84,3.35A25.13,25.13,0,0,0,513.84,116a18.3,18.3,0,0,0,7.92-8.5l-.8,3.4V98.73H500.38V91.49h28.81Z" transform="translate(0 -0.01)" fill="#fff"></path>
  <path d="M571.77,126.74a34.7,34.7,0,0,1-13.33-2.51,32.65,32.65,0,0,1-10.64-7,31.5,31.5,0,0,1-7.07-10.65,36.31,36.31,0,0,1,0-26.53,31.69,31.69,0,0,1,7.07-10.6,32.65,32.65,0,0,1,10.64-7,36.68,36.68,0,0,1,26.67,0,32.65,32.65,0,0,1,10.64,7A31.84,31.84,0,0,1,602.82,80a36.31,36.31,0,0,1,0,26.53,31.65,31.65,0,0,1-7.07,10.65,32.65,32.65,0,0,1-10.64,7A34.71,34.71,0,0,1,571.77,126.74Zm0-7.7a24.46,24.46,0,0,0,12.8-3.31,22.71,22.71,0,0,0,8.63-9.17,28,28,0,0,0,3.09-13.28A27.83,27.83,0,0,0,593.2,80a22.9,22.9,0,0,0-8.63-9.12,26.31,26.31,0,0,0-25.55,0A22.86,22.86,0,0,0,550.35,80a27.83,27.83,0,0,0-3.09,13.25,28,28,0,0,0,3.09,13.28,22.67,22.67,0,0,0,8.67,9.17A24.53,24.53,0,0,0,571.77,119Z" transform="translate(0 -0.01)" fill="#fff"></path>
  <path d="M109.62,59.66,65.06,120.81a3.37,3.37,0,0,0,2.72,5.35h89.11a3.37,3.37,0,0,0,2.72-5.35L115.06,59.66A3.37,3.37,0,0,0,109.62,59.66Z" transform="translate(0 -0.01)" fill="#00b30f"></path>
  <path d="M224,121.33,136.64,1.39a3.37,3.37,0,0,0-5.44,0L49,114.18a3.35,3.35,0,0,1-2.72,1.38H25.21a3.36,3.36,0,0,1-2.72-5.34L88,20.25a3.37,3.37,0,0,1,5.44,0l5.7,7.83a3.36,3.36,0,0,0,5.44,0l2.71-3.72a3.36,3.36,0,0,0,0-4l-13.85-19a3.37,3.37,0,0,0-5.44,0L.66,121.33a3.36,3.36,0,0,0,2.71,5.34H52a3.35,3.35,0,0,0,2.72-1.38l76.53-105a3.37,3.37,0,0,1,5.44,0l65.54,90a3.36,3.36,0,0,1-2.72,5.34H178.37a3.38,3.38,0,0,1-2.72-1.38L125.49,45.34a3.35,3.35,0,0,0-5.43,0l-2.71,3.71a3.38,3.38,0,0,0,0,4L170,125.29a3.38,3.38,0,0,0,2.72,1.38H221.3A3.36,3.36,0,0,0,224,121.33Z" transform="translate(0 -0.01)" fill="#fff"></path>
</svg>
